<svg width="112" height="25" viewBox="0 0 112 25" fill="none" xmlns="http://www.w3.org/2000/svg">
<path d="M24 12.573C24 5.90365 18.629 0.5 12 0.5C5.37097 0.5 0 5.90365 0 12.573C0 18.5988 4.38823 23.5935 10.125 24.5V16.063H7.07661V12.573H10.125V9.91306C10.125 6.88751 11.9153 5.21627 14.6574 5.21627C15.9706 5.21627 17.3439 5.45189 17.3439 5.45189V8.42146H15.8303C14.34 8.42146 13.875 9.35225 13.875 10.3069V12.573H17.2031L16.6708 16.063H13.875V24.5C19.6118 23.5935 24 18.5988 24 12.573Z" fill="black"/>
<path d="M62.9 0.5H66.581L58.541 10.6661L68 24.5H60.5945L54.794 16.1083L48.1565 24.5H44.474L53.0735 13.6255L44 0.5H51.5945L56.837 8.16841L62.9 0.5ZM61.61 22.0636H63.65L50.4845 2.80897H48.2975L61.61 22.0636Z" fill="black"/>
<path d="M112 10.342C109.641 10.347 107.339 9.70321 105.421 8.50171V16.8813C105.42 18.4333 104.878 19.9482 103.867 21.2233C102.856 22.4984 101.424 23.473 99.7627 24.0168C98.1013 24.5606 96.2899 24.6477 94.5704 24.2664C92.851 23.8851 91.3057 23.0536 90.1409 21.883C88.9762 20.7125 88.2477 19.2587 88.0528 17.7161C87.8578 16.1735 88.2058 14.6156 89.0501 13.2507C89.8944 11.8858 91.1949 10.779 92.7775 10.0782C94.3602 9.37746 96.1497 9.11616 97.9066 9.32927V13.5439C97.1026 13.3227 96.2393 13.3293 95.4399 13.563C94.6405 13.7966 93.9459 14.2453 93.4553 14.845C92.9647 15.4446 92.7033 16.1646 92.7082 16.902C92.7132 17.6395 92.9843 18.3567 93.483 18.9512C93.9816 19.5458 94.6821 19.9873 95.4846 20.2127C96.2871 20.4381 97.1505 20.4359 97.9515 20.2063C98.7524 19.9768 99.45 19.5316 99.9446 18.9345C100.439 18.3374 100.705 17.6188 100.705 16.8813V0.5H105.421C105.418 0.848435 105.451 1.1964 105.521 1.53948C105.685 2.30537 106.025 3.03396 106.522 3.68068C107.019 4.3274 107.661 4.87867 108.41 5.30075C109.475 5.91688 110.723 6.24528 112 6.24505V10.342Z" fill="black"/>
</svg>
