<svg width="56" height="57" viewBox="0 0 56 57" fill="none" xmlns="http://www.w3.org/2000/svg">
<path d="M8.47772 30.0049C15.1072 28.6971 14.1924 21.4146 14.0034 19.8187C13.6794 17.3767 10.5334 13.0878 6.27014 13.4318C0.909842 13.8688 0.123349 20.9932 0.123349 20.9932C-0.60576 24.2781 1.86173 31.3126 8.47772 30.0049ZM20.7848 17.7827C24.4439 17.7827 27.3974 13.906 27.3974 9.13051C27.3974 4.36746 24.4574 0.5 20.7983 0.5C17.1325 0.5 14.1621 4.34887 14.1621 9.13051C14.1621 13.9122 17.1325 17.7827 20.7949 17.7827M36.5619 18.3591C41.4699 18.9634 44.5956 14.1601 45.2302 10.5188C45.8648 6.90548 42.6851 2.68474 39.2353 1.9565C35.7552 1.22205 31.4615 6.32908 31.0295 9.65423C30.5704 13.7386 31.6641 17.7951 36.545 18.3715M55.9576 24.4857C55.9576 22.7441 54.4048 17.5038 48.5652 17.5038C42.729 17.5038 41.9323 22.4497 41.9323 25.9515C41.9323 29.289 42.2328 33.925 49.5171 33.7856C56.7677 33.6244 55.9744 26.2304 55.9744 24.4826M48.5888 39.7355C48.5888 39.7355 41.0041 34.3465 36.5822 28.5391C30.5873 19.9613 22.054 23.4568 19.2186 27.7984C16.3663 32.1927 11.9511 34.9446 11.3233 35.6821C10.6887 36.4011 2.17903 40.628 4.07606 48.3226C5.97647 56.0173 12.6093 55.8809 12.6093 55.8809C12.6093 55.8809 17.4903 56.3209 23.1848 55.1558C28.8759 53.9937 33.7501 55.4378 33.7501 55.4378C33.7501 55.4378 46.9821 59.519 50.6445 51.6819C54.2631 43.8199 48.5855 39.7603 48.5855 39.7603" fill="black"/>
</svg>
